<?xml version="1.0" encoding="UTF-8" standalone="no"?>
<!-- Generator: Adobe Illustrator 19.0.1, SVG Export Plug-In . SVG Version: 6.00 Build 0)  -->

<svg
   version="1.1"
   id="ios7_x5F_arrows_1_"
   x="0px"
   y="0px"
   viewBox="0 0 32 32"
   xml:space="preserve"
   width="32"
   height="32"
   xmlns="http://www.w3.org/2000/svg"
   xmlns:svg="http://www.w3.org/2000/svg"><defs
   id="defs45" />
<style
   type="text/css"
   id="style1">
	.st0{display:none;}
	.st1{display:inline;}
</style>
<g
   id="_x34_2_1_"
   class="st0">
	<g
   id="icon"
   class="st1">
		<g
   id="g1">
			<polygon
   points="36.7,74.2 36.7,100.3 21,100.3 0.2,100.3 0.2,105.5 26.2,105.5 41.9,105.5 41.9,79.4 67.9,79.4 67.9,45.4 118,45.4 104,59.4 107.7,63.1 127.9,42.8 107.7,22.5 104,26.2 118,40.2 67.9,40.2 62.7,40.2 62.7,74.2 "
   id="polygon1" />
		</g>
	</g>
</g>
<g
   id="_x34_1_1_"
   class="st0">
	<g
   id="icon_1_"
   class="st1">
		<g
   id="g2">
			<path
   d="m 109.5,51 -4.4,3 12.5,11.3 H 77.8 67.8 V 14.6 L 81.3,28 84.8,24.5 65.3,5 45.8,24.5 49.3,28.1 62.8,14.6 V 65.3 H 52.8 9.1 L 22.8,53.2 18.5,50.3 0.2,66.6 18.4,82.9 22.4,79.2 12,70.3 H 50.3 62.8 V 123 h 5 V 70.3 h 12.6 37.1 l -12.1,10.5 4.1,3.8 18.4,-16.8 z M 7.6,66.6 Z"
   id="path1" />
		</g>
	</g>
</g>
<g
   id="_x34_0_1_"
   class="st0">
	<g
   id="icon_2_"
   class="st1">
		<g
   id="g3">
			<path
   d="m 64.1,121.6 -18.5,-18.5 16.6,-0.4 0.1,-4.5 -20.4,0.5 v 0 l -4.5,0.1 -0.1,4.5 v 0 l -0.5,20.4 4.5,-0.1 0.4,-18 22.4,22.4 25,-25.1 -3.2,-3.2 z m 44.2,-37.9 19.6,-19.7 -23,-23.1 -3.2,3.2 19.9,19.9 -16.4,16.5 -0.4,-17.3 -4.5,-0.1 0.5,20.4 v 0 l 0.1,4.5 4.5,0.1 v 0 l 20.4,0.5 -0.1,-4.5 z M 85.2,21.2 64.1,0 41.7,22.4 44.9,25.6 44.4,26.1 64.1,6.4 82.2,24.6 H 64.9 v 4.5 h 20.3 4.5 V 24.6 4.2 H 85.2 Z M 32,40.5 31.9,36 7.1,35.1 V 40 L 23.8,40.4 0.2,64 24.2,88 27.4,84.8 6.6,64 27.6,43 28,60.9 32.5,61 Z"
   id="path2" />
		</g>
	</g>
</g>
<g
   id="_x33_9_1_"
   class="st0">
	<g
   id="icon_3_"
   class="st1">
		<g
   id="g4">
			<polygon
   points="26.9,23.3 29.9,26.3 29.9,26.8 30.4,26.8 50,46.5 54.2,42.3 38.8,26.8 95.3,26.8 95.3,128 101.2,128 101.2,20.8 95.3,20.8 37.7,20.8 54.2,4.2 50,0 31.1,19 "
   id="polygon3" />
		</g>
	</g>
</g>
<g
   id="_x33_8_1_"
   class="st0">
	<g
   id="icon_4_"
   class="st1">
		<g
   id="g5">
			<polygon
   points="32.6,128 32.6,26.3 90,26.3 74,42.3 78.2,46.5 101.5,23.3 78.2,0 74,4.2 90,20.3 32.6,20.3 26.7,20.3 26.7,128 "
   id="polygon4" />
		</g>
	</g>
</g>
<g
   id="_x33_7_1_"
   class="st0">
	<g
   id="icon_5_"
   class="st1">
		<g
   id="g6">
			<polygon
   points="63,23.1 39.9,0 16.8,23.1 21,27.4 37,11.4 37,128 42.9,128 42.9,74.5 99.9,74.5 84,90.4 88.2,94.6 111.3,71.5 88.2,48.4 84,52.6 99.9,68.5 42.9,68.5 42.9,11.4 58.8,27.3 "
   id="polygon5" />
		</g>
	</g>
</g>
<g
   id="_x33_6_1_"
   class="st0">
	<g
   id="icon_6_"
   class="st1">
		<g
   id="g7">
			<path
   d="M 91.6,88.8 126.4,54 121.9,49.5 93.7,77.7 V 54.6 C 93.7,28.7 72.8,7.8 47,7.8 21.2,7.8 0.3,28.8 0.3,54.6 v 65.6 H 6.5 V 54.6 C 6.4,32.2 24.6,14 46.9,14 69.3,14 87.4,32.2 87.4,54.6 V 77.5 L 59,49.2 54.5,53.7 86.1,85.3 v 0 l 4.5,4.5 v 0 0 z"
   id="path6" />
		</g>
	</g>
</g>
<g
   id="_x33_5_1_"
   class="st0">
	<g
   id="icon_7_"
   class="st1">
		<g
   id="g8">
			<path
   d="M 122,24 99.6,0 77.3,24 82.4,29.3 96.6,13.2 c 0,5 0,13.8 0,29.2 0,13.7 -16,22.7 -33,32.4 -17.1,-9.8 -33,-18.5 -33,-32.5 0,-15 0,-23.7 0,-28.8 L 44.4,29.3 49.4,24 27.3,0 5.1,24 9,29.7 24,13.4 c 0,5.1 0,13.8 0,28.9 0,17 16.9,27.1 35,37.5 0.6,0.3 1.2,0.7 1.9,1.1 V 128 h 6.6 V 79.7 c 0.8,-0.4 1.6,-0.9 2.3,-1.3 0,0 0,0 0,0 0,0 0,0 0,0 17.2,-9.8 33.5,-19.8 33.5,-35.9 0,-15 0,-23.7 0,-28.8 l 14.7,16 z"
   id="path7" />
		</g>
	</g>
</g>
<g
   id="_x33_4_1_"
   class="st0">
	<g
   id="icon_8_"
   class="st1">
		<g
   id="g9">
			<path
   d="M 33.8,53.3 30,49.5 -0.1,79.7 v 0 0 L 30,109.9 33.8,106.1 10,82.3 H 73.2 V 77.1 H 10 Z M 127.9,48.2 97.8,18.1 94,21.9 117.8,45.7 h -63 v 5.2 h 63 L 94.1,74.8 97.9,78.6 128,48.5 v -0.3 z"
   id="path8" />
		</g>
	</g>
</g>
<g
   id="_x33_3_1_"
   class="st0">
	<g
   id="icon_9_"
   class="st1">
		<g
   id="g10">
			<path
   d="m 110.5,25.6 -4.1,2.8 11.8,10.7 H 73.5 L 61.7,50.9 49.9,39.1 H 8.6 L 21.5,27.6 17.4,24.9 0.2,40.3 17.4,55.7 21.2,52.2 11.3,43.8 h 36.2 l 11.8,11.9 v 47.4 H 64 V 55.7 L 76,43.8 h 42.1 l -11.4,9.9 3.9,3.6 L 128,41.4 Z M 7.2,40.3 Z"
   id="path9" />
		</g>
	</g>
</g>
<g
   id="_x33_2_1_"
   style="fill:#d0d0d0;fill-opacity:1;stroke-width:9.13571437;stroke-dasharray:none;paint-order:stroke fill markers;stroke:#d0d0d0;stroke-opacity:1"
   transform="matrix(0.21892103,0,0,0.21892103,1.9562159,2.0000001)">
	<g
   id="_x32__36_"
   style="fill:#d0d0d0;fill-opacity:1;stroke-width:9.13571437;stroke-dasharray:none;paint-order:stroke fill markers;stroke:#d0d0d0;stroke-opacity:1">
		<g
   id="g11"
   style="fill:#d0d0d0;fill-opacity:1;stroke-width:9.13571437;stroke-dasharray:none;paint-order:stroke fill markers;stroke:#d0d0d0;stroke-opacity:1">
			<path
   d="M 91.5,40.3 126.6,5.1 121.5,0 86.9,34.7 85.8,5.1 78.1,2.5 l 1.9,45 44.1,1.2 -2.6,-7.7 z m -88,37 2.6,7.7 29.2,1.5 -33.8,33.8 5.1,5.1 34.3,-34.4 1,29.7 7.6,2.6 -1.6,-43.7 z"
   id="path10"
   style="fill:#d0d0d0;fill-opacity:1;stroke-width:9.13571437;stroke-dasharray:none;paint-order:stroke fill markers;stroke:#d0d0d0;stroke-opacity:1" />
		</g>
	</g>
	<g
   id="_x31__36_"
   style="fill:#d0d0d0;fill-opacity:1;stroke-width:9.13571437;stroke-dasharray:none;paint-order:stroke fill markers;stroke:#d0d0d0;stroke-opacity:1">
		<g
   id="g12"
   style="fill:#d0d0d0;fill-opacity:1;stroke-width:9.13571437;stroke-dasharray:none;paint-order:stroke fill markers;stroke:#d0d0d0;stroke-opacity:1">
			<path
   d="m 92,88.2 29.5,-1.2 2.6,-7.7 -44.8,1.9 -1.1,44.2 7.7,-2.6 0.7,-30.1 35.1,35.2 5.1,-5.1 z M 40.4,36.4 6.6,2.6 1.5,7.7 35.8,42 6.1,43 3.5,50.6 47.1,49 49.5,4.6 41.9,7.2 Z"
   id="path11"
   style="fill:#d0d0d0;fill-opacity:1;stroke-width:9.13571437;stroke-dasharray:none;paint-order:stroke fill markers;stroke:#d0d0d0;stroke-opacity:1" />
		</g>
	</g>
</g>
<g
   id="_x33_1_1_"
   class="st0">
	<g
   id="icon_10_"
   class="st1">
		<g
   id="g13">
			<path
   d="m 102.6,80.6 12.9,11.3 c -4.5,0 -11.9,0 -24.3,0 -11.8,0 -19.6,-13.7 -28.1,-28.2 8.5,-14.6 16.3,-28.3 28.1,-28.3 12.9,0 20.5,0 24.9,0 l -13.6,11.8 4.6,4.3 20.7,-18.9 -20.8,-19 -4.9,3.4 14.1,12.8 c -4.4,0 -11.9,0 -25,0 C 77.2,29.8 68.6,43.9 60,58.6 51.3,43.8 41.3,29.8 25.4,29.8 c -11.4,0 -17.9,0 -21.5,0 v 5.7 c 3.6,0 10,0 21.1,0 14.5,0 23.5,13.7 32,28.3 C 48.5,78.3 39.5,92 25,92 13.9,92 7.4,92 3.9,92 v 5.7 c 3.6,0 10.1,0 21.5,0 15.9,0 25.9,-14 34.6,-28.7 8.5,14.7 17.1,28.7 31.1,28.7 13.9,0 21.6,0 25.8,0 l -14.8,13.5 4.9,3.4 20.8,-19.1 -20.7,-19.1 z"
   id="path12" />
		</g>
	</g>
</g>
<g
   id="_x33_0_1_"
   class="st0">
	<g
   id="icon_11_"
   class="st1">
		<g
   id="g14">
			<path
   d="m 106.7,97.2 c 0,5.2 -4.2,9.5 -9.5,9.5 H 30.9 c -5.2,0 -9.5,-4.2 -9.5,-9.5 V 63.4 L 33.1,75.1 36.6,71.6 19.3,54.3 v 0 0 l -2.5,2.6 v 0 0 L 1.6,72.1 5.1,75.6 16.7,64 v 33.2 c 0,7.9 6.4,14.2 14.2,14.2 h 66.3 c 7.8,0 14.2,-6.4 14.2,-14.2 V 80.6 h -4.7 z m 20,-42.9 -3.5,-3.5 -11.8,11.8 V 30.8 C 111.4,22.9 105,16.6 97.2,16.6 H 30.9 C 23.1,16.6 16.7,23 16.7,30.8 V 45 h 4.7 V 30.8 c 0,-5.2 4.2,-9.5 9.5,-9.5 h 66.3 c 5.2,0 9.5,4.2 9.5,9.5 v 31.8 l -11.8,-11.8 -3.6,3.6 14.2,14.2 v 0 l 3.5,3.5 v 0 0 l 3.6,-3.6 v 0 z"
   id="path13" />
		</g>
	</g>
</g>
<g
   id="_x32_9_1_"
   class="st0">
	<g
   id="icon_12_"
   class="st1">
		<g
   id="g15">
			<path
   d="M 121.7,90.6 85.9,54.7 81.4,59.2 109.5,87.4 H 50 C 27.6,87.4 9.5,69.2 9.5,46.8 9.5,24.4 27.7,6.2 50,6.2 V 0 C 24.2,0 3.3,21 3.3,46.8 3.3,72.6 24.2,93.6 50,93.6 h 60 l -28.8,28.9 4.5,4.5 36.1,-36.2 -0.1,-0.1 z"
   id="path14" />
		</g>
	</g>
</g>
<g
   id="_x32_8_1_"
   class="st0">
	<g
   id="icon_13_"
   class="st1">
		<g
   id="g16">
			<path
   d="m 78.1,0 v 6.2 c 22.4,0 40.5,18.2 40.5,40.6 0,22.4 -18.1,40.6 -40.5,40.6 H 17.9 L 45.8,59.4 41.3,54.9 5.5,90.8 v 0 0 L 41.5,127 46,122.5 17.2,93.6 h 60.9 c 25.8,0 46.7,-21 46.7,-46.8 C 124.8,21 103.9,0 78.1,0 Z"
   id="path15" />
		</g>
	</g>
</g>
<g
   id="_x32_7_1_"
   class="st0">
	<g
   id="_x33__28_"
   class="st1">
		<g
   id="g17">
			<polygon
   points="115.2,55.4 115.3,55.4 126,15.2 121,13.9 111.6,49.1 76.4,39.6 75.1,44.7 115.2,55.4 "
   id="polygon16" />
		</g>
	</g>
	<g
   id="_x32__27_"
   class="st1">
		<g
   id="g18">
			<polygon
   points="17.1,73.5 53,85.2 54.6,80.2 18.8,68.4 13.8,66.8 0.8,106.9 5.8,108.6 "
   id="polygon17" />
		</g>
	</g>
	<g
   id="_x31__27_"
   class="st1">
		<g
   id="g19">
			<path
   d="m 65.2,18.3 c 21.8,0 40.1,15.3 44.7,35.7 h 5.2 C 110.4,30.7 89.8,13.2 65.2,13.2 41.5,13.2 21.5,29.5 15.9,51.5 h 5.3 c 5.5,-19.2 23.1,-33.2 44,-33.2 z m 0,91.9 C 42.5,110.2 23.6,93.6 20,71.9 h -5.2 c 3.7,24.6 24.8,43.4 50.4,43.4 22.8,0 42.1,-15 48.6,-35.7 h -5.4 c -6.2,17.8 -23.2,30.6 -43.2,30.6 z"
   id="path18" />
		</g>
	</g>
</g>
<g
   id="_x32_6_1_"
   class="st0">
	<g
   id="icon_78_"
   class="st1">
		<g
   id="g20">
			<path
   d="m 120.4,115.1 -45.7,-45.8 -5.3,5.3 45.7,45.8 H 86.6 v 7.5 h 33.8 7.5 v -7.5 -33.8 h -7.5 z M 45.3,7.5 V 0 H 7.7 0.2 V 7.5 41.4 H 7.7 V 12.9 L 53.4,58.7 58.7,53.4 13,7.5 Z M 53.4,69.3 7.7,115.1 V 86.6 H 0.2 v 33.9 7.5 h 7.5 37.6 v -7.5 H 13 L 58.7,74.7 Z M 120.4,0 H 86.6 l -0.1,7.6 h 28.6 l -45.7,45.8 5.3,5.3 45.7,-45.8 v 28.6 h 7.5 V 7.5 0 Z"
   id="path19" />
		</g>
	</g>
</g>
<g
   id="_x32_5_1_"
   class="st0">
	<g
   id="icon_14_"
   class="st1">
		<g
   id="g21">
			<path
   d="m 120.4,82.8 v 32.3 l -45.7,-45.8 -5.3,5.3 45.7,45.8 H 86.6 v 7.5 h 33.8 7.5 V 120.4 82.8 Z M 41.5,7.5 V 0 H 7.7 0.2 v 7.5 33.9 l 7.5,0.1 V 12.9 L 53.4,58.7 58.7,53.4 13,7.5 Z"
   id="path20" />
		</g>
	</g>
</g>
<g
   id="_x32_4_1_"
   class="st0">
	<g
   id="icon_15_"
   class="st1">
		<g
   id="g22">
			<path
   d="M 53.4,69.3 7.7,115.1 V 86.6 H 0.2 v 33.9 7.5 h 7.5 37.6 v -7.5 H 13 L 58.7,74.7 Z M 120.4,0 H 86.6 l -0.1,7.6 h 28.6 l -45.7,45.8 5.3,5.3 45.7,-45.8 v 28.6 h 7.5 V 7.5 0 Z"
   id="path21" />
		</g>
	</g>
</g>
<g
   id="_x32_3_1_"
   class="st0">
	<g
   id="icon_16_"
   class="st1">
		<g
   id="g23">
			<path
   d="m 107.3,43.3 -3.8,3.8 14.3,14.3 H 72 v 5.3 h 45.7 L 103.4,81 107.2,84.8 127.9,64 Z M 56.1,66.7 V 61.4 H 10.4 L 26.5,45.2 22.7,41.4 0.2,64 20.9,84.7 24.7,80.9 10.4,66.7 Z m 10.6,51.1 V 72 h -5.3 v 45.8 l -14.3,-14.3 -3.8,3.8 20.8,20.7 22.5,-22.6 -3.8,-3.8 z M 61.4,10.2 V 56 h 5.3 V 10.2 L 81,24.5 84.8,20.7 64.1,0 43.4,20.7 l 3.7,3.8 z"
   id="path22" />
		</g>
	</g>
</g>
<g
   id="_x32_2_1_"
   class="st0">
	<g
   id="icon_17_"
   class="st1">
		<g
   id="g24">
			<path
   d="M 70.7,7.1 C 45,7.1 23.2,24 16,47.2 L 7.2,14.5 1.5,16 13.6,60.8 h 0.1 v 0 l 45.1,-12 -1.5,-5.6 -37,9.8 c 5,-23 25.7,-40.3 50.3,-40.3 28.5,0 51.5,22.9 51.5,51.2 0,28.3 -23.1,51.2 -51.5,51.2 C 53,115.1 37.5,106.3 28.2,93 27.9,92.6 27.3,91.7 27.3,91.7 l -5.6,1.8 c 0,0 0.5,0.8 0.8,1.3 10.2,15.7 27.9,26.1 48.2,26.1 C 102.3,120.9 128,95.4 128,64 127.9,32.6 102.3,7.1 70.7,7.1 Z"
   id="path23" />
		</g>
	</g>
</g>
<g
   id="_x32_1_1_"
   class="st0">
	<g
   id="icon_18_"
   class="st1">
		<g
   id="g25">
			<path
   d="m 69.2,47.7 45.1,12.1 1.5,-6.7 10.6,-39.6 -5.6,-1.5 -9,33.8 C 104.2,23 82.8,6.6 57.5,6.6 25.8,6.6 0.2,32.3 0.2,64 c 0,31.7 25.6,57.4 57.3,57.4 20.2,0 38,-10.5 48.1,-26.3 0.3,-0.4 0.8,-1.3 0.8,-1.3 L 100.8,92 c 0,0 -0.6,0.9 -0.9,1.3 -9.3,13.5 -24.8,22.3 -42.4,22.3 C 29,115.6 5.9,92.5 5.9,64 5.9,35.5 29,12.4 57.4,12.4 c 23.9,0 44,16.3 49.8,38.4 L 70.7,41 Z"
   id="path24" />
		</g>
	</g>
</g>
<g
   id="_x32_0_1_"
   class="st0">
	<g
   id="icon_19_"
   class="st1">
		<g
   id="g26">
			<path
   d="M 64.1,0 C 28.8,0 0.2,28.7 0.2,64 0.2,99.3 28.8,128 64.1,128 99.4,128 128,99.3 128,64 127.9,28.7 99.3,0 64.1,0 Z m 0,122.7 C 31.7,122.7 5.5,96.4 5.5,64 5.5,31.6 31.7,5.3 64.1,5.3 c 32.4,0 58.6,26.3 58.6,58.7 -0.1,32.4 -26.3,58.7 -58.6,58.7 z M 82.7,40 77.4,37.3 50.8,61.6 V 37.3 h -5.3 v 53.3 h 5.3 V 66.4 L 77.4,90.6 82.7,87 56.1,64 Z"
   id="path25" />
		</g>
	</g>
</g>
<g
   id="_x31_9_1_"
   class="st0">
	<g
   id="icon_20_"
   class="st1">
		<g
   id="g27">
			<path
   d="M 64.1,0 C 28.8,0 0.2,28.7 0.2,64 0.2,99.3 28.8,128 64.1,128 99.4,128 128,99.3 128,64 127.9,28.7 99.3,0 64.1,0 Z m 0,122.7 C 31.7,122.7 5.5,96.4 5.5,64 5.5,31.6 31.7,5.3 64.1,5.3 c 32.4,0 58.6,26.3 58.6,58.7 -0.1,32.4 -26.3,58.7 -58.6,58.7 z M 77.4,61.6 50.8,37.3 45.4,41 72,64 45.4,88 50.7,90.7 77.3,66.5 v 24.2 h 5.3 V 37.3 h -5.3 v 24.3 z"
   id="path26" />
		</g>
	</g>
</g>
<g
   id="_x31_8_1_"
   class="st0">
	<g
   id="icon_21_"
   class="st1">
		<g
   id="g28">
			<path
   d="M 88,37.3 58.7,64 88,90.7 93.3,88 66.7,64 93.3,41 Z M 64.1,0 C 28.8,0 0.2,28.7 0.2,64 0.2,99.3 28.8,128 64.1,128 99.4,128 128,99.3 128,64 127.9,28.7 99.3,0 64.1,0 Z m 0,122.7 C 31.7,122.7 5.5,96.4 5.5,64 5.5,31.6 31.7,5.3 64.1,5.3 c 32.3,0 58.6,26.3 58.6,58.7 -0.1,32.4 -26.3,58.7 -58.6,58.7 z M 66.7,41 61.4,37.4 32.1,64 61.4,90.7 66.7,88 40.1,64 Z"
   id="path27" />
		</g>
	</g>
</g>
<g
   id="_x31_7_1_"
   class="st0">
	<g
   id="icon_22_"
   class="st1">
		<g
   id="g29">
			<path
   d="M 42.8,37.3 37.4,41 64,64 37.4,88 42.7,90.7 72,64 Z M 64.1,0 C 28.8,0 0.2,28.7 0.2,64 0.2,99.3 28.8,128 64.1,128 99.4,128 128,99.3 128,64 127.9,28.7 99.3,0 64.1,0 Z m 0,122.7 C 31.7,122.7 5.5,96.4 5.5,64 5.5,31.6 31.7,5.3 64.1,5.3 c 32.3,0 58.6,26.3 58.6,58.7 -0.1,32.4 -26.3,58.7 -58.6,58.7 z M 64.1,41 90.7,64 64.1,88 69.4,90.7 98.7,64 69.4,37.3 Z"
   id="path28" />
		</g>
	</g>
</g>
<g
   id="_x31_6_1_"
   class="st0">
	<g
   id="icon_23_"
   class="st1">
		<g
   id="g30">
			<path
   d="M 64.1,0 C 28.8,0 0.2,28.7 0.2,64 0.2,99.3 28.8,128 64.1,128 99.4,128 128,99.3 128,64 127.9,28.7 99.3,0 64.1,0 Z m 0,122.7 C 31.7,122.7 5.5,96.4 5.5,64 5.5,31.6 31.7,5.3 64.1,5.3 c 32.3,0 58.6,26.3 58.6,58.7 -0.1,32.4 -26.3,58.7 -58.6,58.7 z M 72,37.3 42.8,64 72,90.7 77.3,88 52.8,64 77.4,41 Z"
   id="path29" />
		</g>
	</g>
</g>
<g
   id="_x31_5_1_"
   class="st0">
	<g
   id="icon_24_"
   class="st1">
		<g
   id="g31">
			<path
   d="M 64.1,0 C 28.8,0 0.2,28.7 0.2,64 0.2,99.3 28.8,128 64.1,128 99.4,128 128,99.3 128,64 127.9,28.7 99.3,0 64.1,0 Z m 0,122.7 C 31.7,122.7 5.5,96.4 5.5,64 5.5,31.6 31.7,5.3 64.1,5.3 c 32.3,0 58.6,26.3 58.6,58.7 -0.1,32.4 -26.3,58.7 -58.6,58.7 z M 50.7,41 77.3,64 50.8,88 56.1,90.7 85.4,64 56.1,37.3 Z"
   id="path30" />
		</g>
	</g>
</g>
<g
   id="_x31_4_1_"
   class="st0">
	<g
   id="icon_25_"
   class="st1">
		<g
   id="g32">
			<path
   d="m 64.1,87.9 v 0 L 94.9,57.2 91,53.4 66.7,77.7 V 21.3 H 61.4 V 77.7 L 37.1,53.4 33.3,57.2 Z M 64.1,0 C 28.8,0 0.2,28.7 0.2,64 0.2,99.3 28.8,128 64.1,128 99.4,128 128,99.3 128,64 127.9,28.7 99.3,0 64.1,0 Z m 0,122.7 C 31.7,122.7 5.5,96.4 5.5,64 5.5,31.6 31.7,5.3 64.1,5.3 c 32.4,0 58.6,26.3 58.6,58.7 -0.1,32.4 -26.3,58.7 -58.6,58.7 z M 29.5,98.7 H 98.7 V 93.4 H 29.5 Z"
   id="path31" />
		</g>
	</g>
</g>
<g
   id="_x31_3_1_"
   class="st0">
	<g
   id="icon_26_"
   class="st1">
		<g
   id="g33">
			<path
   d="m 66.7,45.3 v 0 l -2.6,-2.6 v 0 0 l -2.6,2.6 v 0 0 L 33.3,73.5 37.1,77.3 61.4,53 v 56.3 h 5.3 V 53 l 24.2,24.3 3.8,-3.8 z M 64.1,0 C 28.8,0 0.2,28.7 0.2,64 0.2,99.3 28.8,128 64.1,128 99.4,128 128,99.3 128,64 127.9,28.7 99.3,0 64.1,0 Z m 0,122.7 C 31.7,122.7 5.5,96.4 5.5,64 5.5,31.6 31.7,5.3 64.1,5.3 c 32.4,0 58.6,26.3 58.6,58.7 -0.1,32.4 -26.3,58.7 -58.6,58.7 z M 29.5,37.3 H 98.7 V 32 H 29.5 Z"
   id="path32" />
		</g>
	</g>
</g>
<g
   id="_x31_2_1_"
   class="st0">
	<g
   id="icon_27_"
   class="st1">
		<g
   id="g34">
			<path
   d="M 61.7,9.3 V 70 h 4.8 V 9.3 L 88.5,31.4 92,27.9 64.2,0 64.1,0.1 64,0 36.2,27.9 l 3.5,3.5 z m 21.6,29.3 v 4.8 h 33.8 v 79.7 H 11 V 43.5 H 44.8 V 38.7 H 6.2 V 128 H 121.9 V 38.6 Z"
   id="path33" />
		</g>
	</g>
</g>
<g
   id="_x31_1_1_"
   class="st0">
	<g
   id="icon_28_"
   class="st1">
		<g
   id="g35">
			<path
   d="M 87.6,113.4 H 4.7 V 14.6 H 87.6 V 46 h 4.5 V 10.1 H 0.2 V 117.9 H 92.1 V 82 h -4.5 z m 37.8,-52.2 -21,-23.1 -3.2,3.2 19.5,20.4 H 63.1 v 4.5 h 57.8 l -19.8,22.4 3.2,3.2 21.2,-25.1 2.4,-2.9 z"
   id="path34" />
		</g>
	</g>
</g>
<g
   id="_x31_0_1_"
   class="st0">
	<g
   id="icon_29_"
   class="st1">
		<g
   id="g36">
			<path
   d="M 61.8,66.2 V 61.8 H 8.7 L 28.8,41.7 25.6,38.5 0.2,64 v 0 0 L 25.6,89.5 28.8,86.3 8.7,66.2 Z M 37.6,11 V 46.3 H 42 V 15.4 h 81.5 v 97.1 H 42 V 81.7 H 37.6 V 117 h 90.3 V 11 Z"
   id="path35" />
		</g>
	</g>
</g>
<g
   id="_x39__1_"
   class="st0">
	<g
   id="icon_30_"
   class="st1">
		<g
   id="g37">
			<path
   d="M 7.3,0 V 87.7 H 45.2 V 83 H 12 V 4.7 H 116.1 V 83 H 83 v 4.7 h 37.9 V 0 Z m 59.1,118.9 v -62 h -4.7 v 62 L 40.1,97.2 36.7,100.6 64,128 64.1,127.9 64.2,128 91.5,100.6 88,97.2 Z"
   id="path36" />
		</g>
	</g>
</g>
<g
   id="_x38__1_"
   class="st0">
	<g
   id="icon_31_"
   class="st1">
		<g
   id="g38">
			<path
   d="m 90.4,33.8 -46,46.1 V 45 H 39 v 43.5 h 0.5 5 38.4 V 83.1 H 48.8 L 94.2,37.6 Z m 18.8,-15.1 c -24.9,-25 -65.4,-25 -90.3,0 -24.9,25 -24.9,65.5 0,90.5 24.9,25 65.4,25 90.3,0 25,-24.9 25,-65.5 0,-90.5 z m -3.7,86.8 c -22.9,22.9 -59.9,22.9 -82.8,0 -22.9,-22.9 -22.9,-60.1 0,-83 22.9,-22.9 59.9,-22.9 82.8,0 22.8,22.9 22.8,60.1 0,83 z"
   id="path37" />
		</g>
	</g>
</g>
<g
   id="_x37__1_"
   class="st0">
	<g
   id="icon_32_"
   class="st1">
		<g
   id="g39">
			<path
   d="M 83.1,79.3 37.7,33.8 34,37.6 79.4,83.1 H 45.1 v 5.4 h 38 5.4 V 83.1 45 h -5.4 z m 26.1,-60.6 c -24.9,-25 -65.4,-25 -90.3,0 -24.9,25 -24.9,65.5 0,90.5 24.9,25 65.4,25 90.3,0 25,-24.9 25,-65.5 0,-90.5 z m -3.7,86.8 c -22.9,22.9 -59.9,22.9 -82.8,0 -22.9,-22.9 -22.9,-60.1 0,-83 22.9,-22.9 59.9,-22.9 82.8,0 22.8,22.9 22.8,60.1 0,83 z"
   id="path38" />
		</g>
	</g>
</g>
<g
   id="_x36__1_"
   class="st0">
	<g
   id="icon_33_"
   class="st1">
		<g
   id="g40">
			<path
   d="m 109.2,18.7 c -24.9,-25 -65.4,-25 -90.3,0 -24.9,25 -24.9,65.5 0,90.5 24.9,25 65.4,25 90.3,0 25,-24.9 25,-65.5 0,-90.5 z m -3.7,86.8 c -22.9,22.9 -59.9,22.9 -82.8,0 -22.9,-22.9 -22.9,-60.1 0,-83 22.9,-22.9 59.9,-22.9 82.8,0 22.8,22.9 22.8,60.1 0,83 z M 83,44.9 V 39.5 H 45 39.6 V 44.9 83 H 45 V 48.7 L 90.4,94.2 94.2,90.4 48.8,44.9 Z"
   id="path39" />
		</g>
	</g>
</g>
<g
   id="_x35__1_"
   class="st0">
	<g
   id="icon_34_"
   class="st1">
		<g
   id="g41">
			<path
   d="m 109.2,18.7 c -24.9,-25 -65.4,-25 -90.3,0 -24.9,25 -24.9,65.5 0,90.5 24.9,25 65.4,25 90.3,0 25,-24.9 25,-65.5 0,-90.5 z m -3.7,86.8 c -22.9,22.9 -59.9,22.9 -82.8,0 -22.9,-22.9 -22.9,-60.1 0,-83 22.9,-22.9 59.9,-22.9 82.8,0 22.8,22.9 22.8,60.1 0,83 z m -60.4,-66 v 5.4 H 79.3 L 34,90.4 37.8,94.2 83.2,48.7 V 83 h 5.4 V 44.9 39.5 h -5.4 z"
   id="path40" />
		</g>
	</g>
</g>
<g
   id="_x34__1_"
   class="st0">
	<g
   id="icon_35_"
   class="st1">
		<g
   id="g42">
			<path
   d="M 64.1,0 C 28.8,0 0.2,28.7 0.2,64 0.2,99.3 28.8,128 64.1,128 99.4,128 128,99.3 128,64 127.9,28.7 99.3,0 64.1,0 Z m 0,122.7 C 31.7,122.7 5.5,96.4 5.5,64 5.5,31.6 31.7,5.3 64.1,5.3 c 32.3,0 58.6,26.3 58.6,58.7 -0.1,32.4 -26.3,58.7 -58.6,58.7 z M 63.8,28.8 v 0 L 33.1,59.5 36.9,63.3 61.4,38.8 V 104 h 5.3 V 39.4 l 24,24 3.8,-3.8 z"
   id="path41" />
		</g>
	</g>
</g>
<g
   id="_x33__1_"
   class="st0">
	<g
   id="icon_36_"
   class="st1">
		<g
   id="g43">
			<path
   d="M 68.4,33.5 64.6,37.3 89.2,62 H 24.1 v 5.3 h 64.3 l -23.8,24 3.8,3.8 L 99.1,64.3 99,64.2 99.1,64.1 Z M 64.1,0 C 28.8,0 0.2,28.7 0.2,64 0.2,99.3 28.8,128 64.1,128 99.4,128 128,99.3 128,64 127.9,28.7 99.3,0 64.1,0 Z m 0,122.7 C 31.7,122.7 5.5,96.4 5.5,64 5.5,31.6 31.7,5.3 64.1,5.3 c 32.3,0 58.6,26.3 58.6,58.7 -0.1,32.4 -26.3,58.7 -58.6,58.7 z"
   id="path42" />
		</g>
	</g>
</g>
<g
   id="_x32__1_"
   class="st0">
	<g
   id="icon_37_"
   class="st1">
		<g
   id="g44">
			<path
   d="M 64,37 60.2,33.2 29.5,64 v 0 0 L 60.2,94.8 64,91 39.8,66.7 H 104 V 61.4 H 39.8 Z M 64.1,0 C 28.8,0 0.2,28.7 0.2,64 0.2,99.3 28.8,128 64.1,128 99.4,128 128,99.3 128,64 127.9,28.7 99.3,0 64.1,0 Z m 0,122.7 C 31.7,122.7 5.5,96.4 5.5,64 5.5,31.6 31.7,5.3 64.1,5.3 c 32.4,0 58.6,26.3 58.6,58.7 -0.1,32.4 -26.3,58.7 -58.6,58.7 z"
   id="path43" />
		</g>
	</g>
</g>
<g
   id="_x31__1_"
   class="st0">
	<g
   id="icon_38_"
   class="st1">
		<g
   id="g45">
			<path
   d="M 64.1,0 C 28.8,0 0.2,28.7 0.2,64 0.2,99.3 28.8,128 64.1,128 99.4,128 128,99.3 128,64 127.9,28.7 99.3,0 64.1,0 Z m 0,122.7 C 31.7,122.7 5.5,96.4 5.5,64 5.5,31.6 31.7,5.3 64.1,5.3 c 32.4,0 58.6,26.3 58.6,58.7 -0.1,32.4 -26.3,58.7 -58.6,58.7 z M 66.7,88.5 V 24 H 61.4 V 88.5 L 37.1,64.2 33.3,68 64,98.8 64.1,98.7 64.2,98.8 94.9,68 91,64.2 Z"
   id="path44" />
		</g>
	</g>
</g>
</svg>
