<?xml version="1.0" encoding="UTF-8" standalone="no"?>
<svg
   width="32"
   height="32"
   viewBox="0 0 32 32"
   version="1.1"
   id="svg5"
   xml:space="preserve"
   sodipodi:docname="youtube.svg"
   inkscape:version="1.4.2 (f4327f4, 2025-05-13)"
   xmlns:inkscape="http://www.inkscape.org/namespaces/inkscape"
   xmlns:sodipodi="http://sodipodi.sourceforge.net/DTD/sodipodi-0.dtd"
   xmlns="http://www.w3.org/2000/svg"
   xmlns:svg="http://www.w3.org/2000/svg"><sodipodi:namedview
     id="namedview1"
     pagecolor="#ffffff"
     bordercolor="#666666"
     borderopacity="1.0"
     inkscape:showpageshadow="2"
     inkscape:pageopacity="0.0"
     inkscape:pagecheckerboard="0"
     inkscape:deskcolor="#d1d1d1"
     inkscape:document-units="px"
     inkscape:zoom="95.958936"
     inkscape:cx="16.001636"
     inkscape:cy="16.001636"
     inkscape:window-width="3840"
     inkscape:window-height="2071"
     inkscape:window-x="-9"
     inkscape:window-y="-9"
     inkscape:window-maximized="1"
     inkscape:current-layer="svg5" /><defs
     id="defs2" /><g
     id="layer1"
     transform="matrix(0.08939028,0,0,0.08939028,-2.8341697,5.8732225)"><path
       d="m 210.53177,221.29866 c 0,0 98.12514,0 122.46443,-6.48069 13.70449,-3.6724 24.01093,-14.2575 27.62825,-27.32688 6.68807,-23.97854 6.68807,-74.41988 6.68807,-74.41988 0,0 0,-50.117297 -6.68807,-73.879819 C 357.00713,25.79798 346.70069,15.42887 332.9962,11.864515 308.65691,5.2758072 210.53177,5.2758072 210.53177,5.2758072 c 0,0 -97.9062,0 -122.135976,6.5887078 -13.485335,3.564355 -24.010529,13.933465 -27.847831,27.326876 -6.468588,23.762522 -6.468588,73.879819 -6.468588,73.879819 0,0 0,50.44134 6.468588,74.41988 3.837302,13.06938 14.362496,23.65448 27.847831,27.32688 24.229776,6.48069 122.135976,6.48069 122.135976,6.48069 z"
       fill="#ee3015"
       id="path1412"
       style="stroke-width:0.0208149"
       clip-path="none" /><path
       d="M 259.30109,113.28723 178.29251,67.382379 v 91.809711 z"
       fill="#ffffff"
       id="path1414"
       style="stroke-width:0.0208149"
       clip-path="none" /></g></svg>
